<svg id="Layer_1" data-name="Layer 1" xmlns="http://www.w3.org/2000/svg" viewBox="0 0 1000 1000"><defs><style>.cls-1{fill:#0d1d2d;}.cls-2{fill:#fff;}.cls-3{fill:#231f20;}.cls-4{fill:#ed1c24;}</style></defs><title>DEGA final 2</title><path class="cls-1" d="M780.65,491.15h0c-.28-.43-22.42-33.91-57.22-15.91,0,0-25.6,16.1-33.33,41.13-6.47,23.79-11.2,27.72-15,55.85h98.65c-20.33-39.06-22.22-51.9-10.43-60,2.7-1.85,6.24-2.57,10.12-2.48,13.1.31,30.14,10,32.15,17.58C805.55,527.3,816.07,511.39,780.65,491.15Z"/><path class="cls-2" d="M752,536.27l-3.32,7.44-6-13.09-5.27,15.67-1.59-17.43-5.65,10.28,2-14.33L720.74,539.7l-.24-11.59-7,8.7.23-19L705.45,533l1.34-12.71-8.92,12.35.11-17.18-8.37,8c.67-2.2,1.31-4.41,1.93-6.71,7.3-23.63,31.38-39.41,32.63-40.22a42.66,42.66,0,0,1,19.55-5.11c21.91,0,35.12,19.71,35.67,20.55l.19.3.32.19c18.32,10.46,23.81,19.56,25.19,25.35a13.79,13.79,0,0,1,.22,5.67c-5.24-7.48-20.22-15-31.88-15.26h-.67A17.94,17.94,0,0,0,762.43,511c-9.47,6.51-10.37,15.7-3.29,33.84l-.18,3.11Z"/><path class="cls-3" d="M743.72,472.92c20.78,0,33.86,19.05,34.4,19.85l0,0,.4.59.62.36c17.64,10.08,23,18.69,24.41,24.14a16.93,16.93,0,0,1,.33,1.67c-6.86-6.75-19.77-12.6-30.43-12.85h-.71a19.44,19.44,0,0,0-11.18,3c-8.94,6.15-10.78,14.74-6,29.72l-.89-1.48-3-4.94-2.35,5.26-.8,1.79-3.07-6.66-3.16-6.86L740,533.72l-1.8,5.34-.49-5.45-.9-9.77-4.08,7.43.09-.59,1.57-11.31-6.93,9.07-5.3,6.94-.07-3.18-.17-8.25-5.16,6.43-1.69,2.1.11-8.6.14-12.06-5.78,10.59-1.8,3.3,1.15-10.83-6.6,9.12-2.88,4,.06-9,0-7.06-5.12,4.87-1.79,1.7c.13-.45.25-.89.38-1.35,7.08-22.85,30.26-38.26,31.95-39.36a41.06,41.06,0,0,1,18.79-4.91m0-3a43.87,43.87,0,0,0-20.3,5.31s-25.6,16.1-33.33,41.13c-1.29,4.74-2.51,8.69-3.67,12.21l10-9.56-.13,18.34,8.38-11.59-1.54,14.59,9-16.5L712,541.14l7.12-8.88.25,11.75,10.5-13.75L727.5,547l7.21-13.12,1.79,19.62,6.33-18.83,5.84,12.67,3.5-7.84,8,13.34.49-8.28c-7.23-18.39-5.78-26.58,2.62-32.37a16.62,16.62,0,0,1,9.48-2.49h.64c13.1.31,30.14,10,32.15,17.58,0,0,10.52-15.91-24.9-36.15h0c-.22-.34-14-21.22-36.92-21.22Z"/><path class="cls-1" d="M855.08,468.92a102.93,102.93,0,0,0-205.85,0h.06V572.21h30V468.92h-.06a72.93,72.93,0,0,1,145.85,0h.12V572.21h30V468.92Z"/><path class="cls-4" d="M741.38,484s9.43-1.56,23.6,11.14c0,0-8.72,10.59-17.68-1.17C747.3,494,744.73,484.88,741.38,484Z"/><path class="cls-1" d="M400.77,451.51H330a73.07,73.07,0,0,1,70.73-55.17v-30a102.93,102.93,0,0,0,0,205.85v-30a73,73,0,0,1-71.87-60.68h71.91Z"/><path class="cls-1" d="M525.23,572.19a102.93,102.93,0,1,1,0-205.85v30a72.93,72.93,0,1,0,72.92,73.42H525.48v-30H628.14v29.51A103,103,0,0,1,525.23,572.19Z"/><path class="cls-1" d="M174.56,366.35v-.09h-30V572.14h29.68v.05a102.92,102.92,0,0,0,.32-205.84Zm0,175.84V396.35a72.92,72.92,0,0,1,0,145.84Z"/><path class="cls-4" d="M161.2,609.55v4.73H150v5.22h10.63v4.73H150v9.46h-5.39V609.55Z"/><path class="cls-4" d="M183.71,633.69l-2.24-5.21H171.35l-2.24,5.21h-5.74l10.43-24.14H179l10.43,24.14Zm-7.28-17-3,7h6Z"/><path class="cls-4" d="M205.4,628.92a7.93,7.93,0,0,0,6.49-3.14l3.46,3.56a13,13,0,0,1-18.88,1.1,11.91,11.91,0,0,1-3.61-8.89,12,12,0,0,1,3.68-9,12.4,12.4,0,0,1,9-3.59,12.75,12.75,0,0,1,9.94,4.52l-3.34,3.8a7.87,7.87,0,0,0-6.36-3.18,7.43,7.43,0,0,0-5.2,2,6.9,6.9,0,0,0-2.15,5.35,7.3,7.3,0,0,0,2,5.41A6.72,6.72,0,0,0,205.4,628.92Z"/><path class="cls-4" d="M231.89,614.21v19.48H226.5V614.21h-6.84v-4.66h19.07v4.66Z"/><path class="cls-4" d="M267,628.92a7.93,7.93,0,0,0,6.49-3.14l3.46,3.56a13,13,0,0,1-18.88,1.1,11.91,11.91,0,0,1-3.61-8.89,12,12,0,0,1,3.68-9,12.4,12.4,0,0,1,9-3.59,12.75,12.75,0,0,1,9.94,4.52l-3.35,3.8a7.84,7.84,0,0,0-6.35-3.18,7.43,7.43,0,0,0-5.2,2,6.91,6.91,0,0,0-2.16,5.35,7.31,7.31,0,0,0,2,5.41A6.72,6.72,0,0,0,267,628.92Z"/><path class="cls-4" d="M298.26,609.55h5.39v24.14h-5.39v-9.5h-9.6v9.5h-5.39V609.55h5.39v10.09h9.6Z"/><path class="cls-4" d="M329.07,609.55v4.8h-12v5h10.81v4.59H317.05v5h12.4v4.77H311.66V609.55Z"/><path class="cls-4" d="M347.41,628.92a7.94,7.94,0,0,0,6.49-3.14l3.45,3.56a13,13,0,0,1-18.87,1.1,11.87,11.87,0,0,1-3.61-8.89,12,12,0,0,1,3.68-9,12.4,12.4,0,0,1,9-3.59,12.77,12.77,0,0,1,9.95,4.52l-3.35,3.8a7.84,7.84,0,0,0-6.35-3.18,7.43,7.43,0,0,0-5.2,2,6.91,6.91,0,0,0-2.16,5.35,7.31,7.31,0,0,0,2,5.41A6.71,6.71,0,0,0,347.41,628.92Z"/><path class="cls-4" d="M363.67,609.55h5.39v9.91l9.12-9.91h6.66l-9.6,10.67q1.25,1.72,4.59,6.44c2.24,3.15,3.9,5.49,5,7h-6.29l-7.08-9.53-2.41,2.69v6.84h-5.39Z"/><path class="cls-4" d="M418.08,611.71q2.54,2.16,2.54,6.63T418,624.88q-2.61,2.08-8,2.08h-3.21v6.73h-5.39V609.55H410Q415.54,609.55,418.08,611.71Zm-3.95,9.5a4.68,4.68,0,0,0,1-3.18,3.37,3.37,0,0,0-1.26-3,6.91,6.91,0,0,0-3.92-.88h-3.07v8.11h3.62C412.26,622.29,413.48,621.93,414.13,621.21Z"/><path class="cls-4" d="M433.29,627.46a4.44,4.44,0,0,0,3.63,1.67,4.38,4.38,0,0,0,3.61-1.67,7.21,7.21,0,0,0,1.33-4.58V609.55h5.38v13.5c0,3.5-1,6.19-2.9,8.07a11.2,11.2,0,0,1-14.86,0q-2.93-2.83-2.92-8.05v-13.5h5.38v13.33A7.1,7.1,0,0,0,433.29,627.46Z"/><path class="cls-4" d="M465.48,633.69H454.91V609.55h9.39a13.54,13.54,0,0,1,4.23.59,6,6,0,0,1,2.68,1.59,6.23,6.23,0,0,1,1.62,4.21,4.93,4.93,0,0,1-1.83,4.21,5.88,5.88,0,0,1-.86.61l-.86.4a6.35,6.35,0,0,1,3.57,2,5.63,5.63,0,0,1,1.33,3.82,6.51,6.51,0,0,1-1.73,4.46C471.12,632.94,468.79,633.69,465.48,633.69Zm-5.18-14.36h2.55a8.63,8.63,0,0,0,3.33-.49,2,2,0,0,0,1.09-2.09,2.14,2.14,0,0,0-1-2.12,7.84,7.84,0,0,0-3.38-.52H460.3Zm0,9.8H464a8.16,8.16,0,0,0,3.47-.57,2.26,2.26,0,0,0,1.16-2.24,2.15,2.15,0,0,0-1.23-2.21,10.38,10.38,0,0,0-3.92-.54H460.3Z"/><path class="cls-4" d="M480.78,633.69V609.55h5.38v19.34h10.29v4.8Z"/><path class="cls-4" d="M502.46,609.55h5.39v24.14h-5.39Z"/><path class="cls-4" d="M521.51,614.37a2.07,2.07,0,0,0-.78,1.69,1.94,1.94,0,0,0,.95,1.68,17.49,17.49,0,0,0,4.39,1.46,12.34,12.34,0,0,1,5.33,2.54,6.27,6.27,0,0,1,1.9,4.94,6.54,6.54,0,0,1-2.43,5.27,9.76,9.76,0,0,1-6.41,2,14.82,14.82,0,0,1-10.32-4.25l3.21-3.94q3.9,3.42,7.22,3.42a3.79,3.79,0,0,0,2.33-.64,2,2,0,0,0,.84-1.72,2,2,0,0,0-.9-1.73,11.63,11.63,0,0,0-3.55-1.3,15.39,15.39,0,0,1-6.17-2.6q-1.95-1.61-2-5a6.25,6.25,0,0,1,2.47-5.31,10,10,0,0,1,6.17-1.86,14.61,14.61,0,0,1,4.83.83,12.71,12.71,0,0,1,4.21,2.35l-2.73,3.93a10.61,10.61,0,0,0-6.49-2.38A3.23,3.23,0,0,0,521.51,614.37Z"/><path class="cls-4" d="M555,609.55h5.39v24.14H555v-9.5h-9.6v9.5H540V609.55h5.38v10.09H555Z"/><path class="cls-4" d="M568.35,609.55h5.39v24.14h-5.39Z"/><path class="cls-4" d="M598.64,609.55H604v24.14h-5.39l-11.5-15.12v15.12h-5.39V609.55h5l11.85,15.54Z"/><path class="cls-4" d="M627.72,621.4h5.42V630q-3.6,4-9.95,4a12.26,12.26,0,0,1-8.92-3.53,11.87,11.87,0,0,1-3.61-8.89,12,12,0,0,1,3.68-9,12.25,12.25,0,0,1,8.87-3.59,13.1,13.1,0,0,1,9,3.42l-2.8,4a10.31,10.31,0,0,0-3-2,8,8,0,0,0-3-.54,7.09,7.09,0,0,0-5.18,2.09,8.35,8.35,0,0,0-.08,11,6.51,6.51,0,0,0,4.82,2.06,9.31,9.31,0,0,0,4.66-1.07Z"/><path class="cls-4" d="M667.83,611.71q2.53,2.16,2.54,6.63t-2.61,6.54q-2.61,2.08-8,2.08h-3.21v6.73H651.2V609.55h8.53Q665.3,609.55,667.83,611.71Zm-4,9.5a4.68,4.68,0,0,0,1-3.18,3.37,3.37,0,0,0-1.26-3,6.91,6.91,0,0,0-3.92-.88h-3.07v8.11h3.62C662,622.29,663.23,621.93,663.88,621.21Z"/><path class="cls-4" d="M676.65,633.69V609.55H682v19.34h10.29v4.8Z"/><path class="cls-4" d="M715.54,633.69l-2.25-5.21H703.18l-2.25,5.21H695.2l10.43-24.14h5.21l10.43,24.14Zm-7.29-17-3,7h6Z"/><path class="cls-4" d="M734.6,614.21v19.48h-5.39V614.21h-6.83v-4.66h19.06v4.66Z"/><path class="cls-4" d="M764,609.55v4.73H752.84v5.22h10.63v4.73H752.84v9.46h-5.39V609.55Z"/><path class="cls-4" d="M791,630.36a13.17,13.17,0,0,1-18,0,12.64,12.64,0,0,1,0-17.79,13.17,13.17,0,0,1,18,0,12.64,12.64,0,0,1,0,17.79Zm-1.83-8.88a7.91,7.91,0,0,0-2.07-5.51,6.85,6.85,0,0,0-10.19,0,7.91,7.91,0,0,0-2.07,5.51,7.81,7.81,0,0,0,2.07,5.49,6.85,6.85,0,0,0,10.19,0A7.81,7.81,0,0,0,789.13,621.48Z"/><path class="cls-4" d="M820.83,617.56q0,5.81-4.59,7.5l6.11,8.63h-6.63l-5.35-7.7h-3.73v7.7h-5.39V609.55h9.16q5.63,0,8,1.9C820,612.72,820.83,614.75,820.83,617.56Zm-6.49,2.87a3.64,3.64,0,0,0,1-2.85,3.07,3.07,0,0,0-1-2.68,6.68,6.68,0,0,0-3.63-.72h-4v7.15h3.94C812.42,621.33,813.67,621,814.34,620.43Z"/><path class="cls-4" d="M850.05,618.5l-6.53,13.19h-3.21l-6.49-13.19v15.19h-5.39V609.55h7.29l6.21,13.26,6.25-13.26h7.26v24.14h-5.39Z"/></svg>